# Alias OBJ Model File
# Exported from SketchUp, (c) 2000-2012 Trimble Navigation Limited
# File units = centimeters

mtllib логотип объем.mtl

g Mesh1 Group1 Model

usemtl FrontColor
v -0.625 4.52687 4.96577
vt 9.18053 28.5157
vn 1 1.66533e-16 9.99201e-16
v -0.625 4.52859 4.96875
vt 9.16178 28.5266
v -0.625 4.52687 4.96875
vt 9.16178 28.5157
f 1/1/1 2/2/1 3/3/1

vt -9.16178 28.5157
vn -1 -1.66534e-16 -9.99208e-16
v -0.625 8.03262 4.96875
vt -9.16178 50.5992
vt -9.16178 28.5266
f 3/4/2 4/5/2 2/6/2

v -0.625 3.69865 6.40625
vt -0.106665 23.2986
f 5/7/2 4/5/2 3/4/2

v -0.625 8.86256 6.40625
vt -0.106665 55.8271
f 4/5/2 5/7/2 6/8/2

vt -55.8271 -7.38956e-22
vn -9.99208e-16 1.72562e-31 1
vt -23.2986 -7.38956e-22
v 0.625 3.69865 6.40625
vt -23.2986 7.87402
v 0.625 8.86256 6.40625
vt -55.8271 7.87402
f 6/9/3 5/10/3 7/11/3 8/12/3 

vt -11.5569 -5.69293e-20
vn -3.55381e-16 -0.866025 0.5
v -0.625 -1.04083e-16 -0
vt 35.0402 -5.69293e-20
v 0.625 1.04083e-16 -1.77636e-15
vt 35.0402 7.87402
vt -11.5569 7.87402
f 5/13/4 9/14/4 10/15/4 7/16/4 

vt -40.461 2.1035e-40
f 5/7/2 3/4/2 9/17/2

vt -9.18053 28.5157
f 9/17/2 3/4/2 1/18/2

vt -9.18053 -8.88157e-16
vn -1.66534e-16 1 -3.38964e-31
vt -9.16178 -8.88157e-16
v 0.625 4.52687 4.96875
vt -9.16178 7.87402
v 0.625 4.52687 4.96577
vt -9.18053 7.87402
f 1/19/5 3/20/5 11/21/5 12/22/5 

vt 28.5157 -8.88242e-16
vn 9.99208e-16 -1.72562e-31 -1
vt 28.5266 -8.88242e-16
v 0.625 4.52859 4.96875
vt 28.5266 7.87402
vt 28.5157 7.87402
f 3/23/6 2/24/6 13/25/6 11/26/6 

vt 50.5992 -6.34714e-20
v 0.625 8.03262 4.96875
vt 50.5992 7.87402
f 2/24/6 4/27/6 14/28/6 13/25/6 

vt 17.3652 -1.36202e-19
vn 3.55381e-16 0.866025 -0.5
vt 27.8212 -1.36202e-19
vt 27.8212 7.87402
vt 17.3652 7.87402
f 4/29/7 6/30/7 8/31/7 14/32/7 

vn 1 1.66534e-16 9.99208e-16
vt 9.16178 50.5992
vt 0.106665 55.8271
f 11/3/8 14/33/8 8/34/8

f 14/33/8 11/3/8 13/2/8

vt 0.106665 23.2986
f 7/35/8 11/3/8 8/34/8

vt 40.461 -5.90887e-21
f 11/3/8 7/35/8 10/36/8

f 11/3/8 10/36/8 12/1/8

v 0.625 1.65988 -1.77636e-15
vt 40.461 10.4559
f 12/1/8 10/36/8 15/37/8

v 0.625 3.69865 -6.40625
vt 80.8153 23.2986
f 15/37/8 10/36/8 16/38/8

vt 35.0402 -8.32244e-20
vn 6.43827e-16 -0.866025 -0.5
v -0.625 3.69865 -6.40625
vt 81.6374 -8.88262e-16
vt 81.6374 7.87402
f 9/39/9 17/40/9 16/41/9 10/15/9 

v -0.625 4.52859 -4.96875
vt -71.7602 28.5266
vt -80.8153 23.2986
f 9/17/2 18/42/2 17/43/2

v -0.625 1.65988 -0
vt -40.461 10.4559
f 9/17/2 19/44/2 18/42/2

f 9/17/2 1/18/2 19/44/2

vt -29.8123 7.87402
vn 3.70109e-16 0.866025 -0.5
vt -29.8123 -4.31395e-16
vt 6.3073 -1.31957e-15
vt 6.3073 7.87402
f 15/45/10 19/46/10 1/47/10 12/48/10 

vt -76.4094 -2.20396e-30
vn -6.43823e-16 0.866025 0.5
vt -40.2682 -2.20396e-30
vt -40.2682 7.87402
v 0.625 4.52859 -4.96875
vt -76.4094 7.87402
f 18/49/11 19/50/11 15/51/11 20/52/11 

vt 71.7602 28.5266
f 15/37/8 16/38/8 20/53/8

v 0.625 13.6219 -4.96875
vt 71.7602 85.8074
f 20/53/8 16/38/8 21/54/8

v 0.625 14.4519 -6.40625
vt 80.8153 91.0354
f 22/55/8 21/54/8 16/38/8

v 0.625 18.1505 -1.77636e-15
vt 40.461 114.334
f 23/56/8 21/54/8 22/55/8

v 0.625 16.4906 -1.77636e-15
vt 40.461 103.878
f 23/56/8 24/57/8 21/54/8

v 0.625 13.6219 4.96875
vt 9.16178 85.8074
f 23/56/8 25/58/8 24/57/8

v 0.625 14.4519 6.40625
vt 0.106665 91.0354
f 26/59/8 25/58/8 23/56/8

v 0.625 10.8175 4.96875
vt 9.16178 68.1417
f 25/58/8 26/59/8 27/60/8

v 0.625 9.98756 6.40625
vt 0.106665 62.9137
f 28/61/8 27/60/8 26/59/8

v 0.625 8.59109 3.9875
vt 15.3429 54.1171
f 27/60/8 28/61/8 29/62/8

v -0.625 9.98756 6.40625
vt -31.3645 -1.53472e-19
v -0.625 8.59109 3.9875
vt -13.7712 -1.53472e-19
vt -13.7712 7.87402
vt -31.3645 7.87402
f 30/63/4 31/64/4 29/65/4 28/66/4 

vt -0.106665 62.9137
v -0.625 10.8175 4.96875
vt -9.16178 68.1417
vt -15.3429 54.1171
f 30/67/2 32/68/2 31/69/2

v -0.625 13.6219 4.96875
vt -9.16178 85.8074
f 32/68/2 30/67/2 33/70/2

v -0.625 14.4519 6.40625
vt -0.106665 91.0354
f 34/71/2 33/70/2 30/67/2

v -0.625 18.1505 -0
vt -40.461 114.334
f 33/70/2 34/71/2 35/72/2

vt -92.2073 -8.87854e-16
vn -6.43827e-16 0.866025 0.5
vt -45.6101 3.24109e-19
vt -45.6101 7.87402
vt -92.2073 7.87402
f 35/73/12 34/74/12 26/75/12 23/76/12 

vt -91.0354 -7.38956e-22
vt -62.9137 -7.38956e-22
vt -62.9137 7.87402
vt -91.0354 7.87402
f 34/77/3 30/78/3 28/79/3 26/80/3 

v -0.625 14.4519 -6.40625
vt -24.4704 -3.35564e-19
vt 22.1268 -8.88514e-16
vt 22.1268 7.87402
vt -24.4704 7.87402
f 36/81/7 35/82/7 23/83/7 22/84/7 

v -0.625 16.4906 -0
vt -40.461 103.878
vt -80.8153 91.0354
f 37/85/2 35/72/2 36/86/2

f 33/70/2 35/72/2 37/85/2

vt 50.8381 -8.87892e-16
vt 86.9793 2.86858e-19
vt 86.9793 7.87402
vt 50.8381 7.87402
f 33/87/9 37/88/9 24/89/9 25/90/9 

vt -16.8988 -3.10082e-19
v -0.625 13.6219 -4.96875
vt 19.2424 -3.10082e-19
vt 19.2424 7.87402
vt -16.8988 7.87402
f 37/91/4 38/92/4 21/93/4 24/94/4 

vt -71.7602 85.8074
f 37/85/2 36/86/2 38/95/2

f 38/95/2 36/86/2 18/42/2

f 17/43/2 18/42/2 36/86/2

v -0.625 12.792 -6.40625
vt -80.8153 80.5795
f 17/43/2 36/86/2 39/96/2

v -0.625 12.7724 -6.40625
vt 80.4563 2.32244e-45
vn 9.99201e-16 -1.72563e-31 -1
vt 80.5795 2.32244e-45
vt 91.0354 2.32244e-45
vt 91.0354 7.87402
vt 23.2986 7.87402
vt 23.2986 -8.88178e-16
f 40/97/13 39/98/13 36/99/13 22/100/13 16/101/13 17/102/13 

v -0.625 12.7822 -6.42318
vt 80.922 80.5179
vt 80.8153 80.5795
vt 80.8153 80.4563
f 41/103/1 39/104/1 40/105/1

vt -80.8153 80.4563
f 17/43/2 39/96/2 40/106/2

vt -85.8074 2.06221e-45
vn -9.99201e-16 1.72563e-31 1
vt -28.5266 2.06221e-45
vt -28.5266 7.87402
vt -85.8074 7.87402
f 38/107/14 18/108/14 20/109/14 21/110/14 

vt 68.1417 -8.88242e-16
vt 85.8074 -8.88242e-16
vt 85.8074 7.87402
vt 68.1417 7.87402
f 32/111/6 33/112/6 25/113/6 27/114/6 

v -0.625 10.251 3.9875
vt 18.9992 -1.78954e-19
vt 26.1365 -8.88357e-16
vt 26.1365 7.87402
v 0.625 10.251 3.9875
vt 18.9992 7.87402
f 42/115/7 32/116/7 27/117/7 43/118/7 

vt -15.3429 64.5731
f 31/69/2 32/68/2 42/119/2

v -0.625 10.546 2.55
vt -24.398 66.4317
f 42/119/2 44/120/2 31/69/2

v -0.625 13.0359 3.9875
vt -15.3429 82.1156
f 45/121/2 44/120/2 42/119/2

v -0.625 10.7337 -0
vt -40.461 67.6137
f 44/120/2 45/121/2 46/122/2

vt -1.23341 -2.21705e-19
vt 27.7705 -2.21705e-19
v 0.625 13.0359 3.9875
vt 27.7705 7.87402
v 0.625 10.7337 -1.77636e-15
vt -1.23341 7.87402
f 46/123/7 45/124/7 47/125/7 48/126/7 

vt -82.1156 -1.06293e-19
vt -64.5731 -1.06293e-19
vt -64.5731 7.87402
vt -82.1156 7.87402
f 45/127/3 42/128/3 43/129/3 47/130/3 

vt 15.3429 64.5731
v 0.625 4.25713 2.55
vt 24.398 26.8165
vt 15.3429 82.1156
f 43/131/8 49/132/8 47/133/8

f 29/62/8 49/132/8 43/131/8

v 0.625 5.08707 3.9875
vt 15.3429 32.0445
f 49/132/8 29/62/8 50/134/8

vt -54.1171 -1.06293e-19
v -0.625 5.08707 3.9875
vt -32.0445 8.88072e-16
vt -32.0445 7.87402
vt -54.1171 7.87402
f 31/135/3 51/136/3 50/137/3 29/138/3 

vt -15.3429 32.0445
f 31/69/2 44/120/2 51/139/2

v -0.625 4.25713 2.55
vt -24.398 26.8165
f 44/120/2 52/140/2 51/139/2

v -0.625 9.42103 2.55
vt -24.398 59.3451
f 52/140/2 44/120/2 53/141/2

vt 59.3451 -1.69025e-19
vt 66.4317 -1.69025e-19
v 0.625 10.546 2.55
vt 66.4317 7.87402
v 0.625 9.42103 2.55
vt 59.3451 7.87402
f 53/142/6 44/143/6 54/144/6 55/145/6 

vt -12.0866 -1.96224e-19
v -0.625 9.07379 -0
vt 6.46139 -1.96224e-19
v 0.625 9.07379 -1.77636e-15
vt 6.46139 7.87402
vt -12.0866 7.87402
f 44/146/4 56/147/4 57/148/4 54/149/4 

vt -40.461 57.1577
f 44/120/2 46/122/2 56/150/2

v -0.625 13.0359 -3.9875
vt -65.5791 82.1156
f 56/150/2 46/122/2 58/151/2

vt -97.851 -8.88021e-16
vt -68.8471 1.5766e-19
vt -68.8471 7.87402
v 0.625 13.0359 -3.9875
vt -97.851 7.87402
f 58/152/12 46/153/12 48/154/12 59/155/12 

vt 40.461 67.6137
v 0.625 10.546 -2.55
vt 56.524 66.4317
vt 65.5791 82.1156
f 48/156/8 60/157/8 59/158/8

vt 40.461 57.1577
f 48/156/8 57/159/8 60/157/8

vt 24.398 66.4317
f 48/156/8 54/160/8 57/159/8

f 47/133/8 54/160/8 48/156/8

f 47/133/8 49/132/8 54/160/8

v 0.625 7.76115 2.55
vt 24.398 48.8891
f 54/160/8 49/132/8 61/161/8

vt 26.8165 -1.69025e-19
v -0.625 7.76115 2.55
vt 48.8891 -1.69025e-19
vt 48.8891 7.87402
vt 26.8165 7.87402
f 52/162/6 62/163/6 61/164/6 49/165/6 

vt -24.398 48.8891
f 52/140/2 53/141/2 62/166/2

v -0.625 7.94879 -0
vt -40.461 50.0711
f 63/167/2 62/166/2 53/141/2

v -0.625 6.28891 -0
vt -40.461 39.6152
f 62/166/2 63/167/2 64/168/2

v -0.625 9.42103 -2.55
vt -56.524 59.3451
f 64/168/2 63/167/2 65/169/2

vt -78.6237 9.51621e-20
vt -60.0758 -8.88083e-16
v 0.625 7.94879 -1.77636e-15
vt -60.0758 7.87402
v 0.625 9.42103 -2.55
vt -78.6237 7.87402
f 65/170/12 63/171/12 66/172/12 67/173/12 

vt -10.0047 -8.88357e-16
vt 8.54325 -1.78954e-19
vt 8.54325 7.87402
vt -10.0047 7.87402
f 63/174/7 53/175/7 55/176/7 66/177/7 

vt 24.398 59.3451
v 0.625 6.28891 -1.77636e-15
vt 40.461 39.6152
vt 40.461 50.0711
f 55/178/8 68/179/8 66/180/8

f 68/179/8 55/178/8 61/161/8

f 54/160/8 61/161/8 55/178/8

vt -3.31527 -1.53472e-19
vt 15.2327 -8.88332e-16
vt 15.2327 7.87402
vt -3.31527 7.87402
f 62/181/4 64/182/4 68/183/4 61/184/4 

vt 54.8478 -8.88121e-16
v -0.625 8.59109 -3.9875
vt 83.8517 -8.88121e-16
v 0.625 8.59109 -3.9875
vt 83.8517 7.87402
vt 54.8478 7.87402
f 64/185/9 69/186/9 70/187/9 68/188/9 

vt -65.5791 54.1171
f 64/168/2 65/169/2 69/189/2

f 69/189/2 65/169/2 58/151/2

v -0.625 10.546 -2.55
vt -56.524 66.4317
f 71/190/2 58/151/2 65/169/2

f 56/150/2 58/151/2 71/190/2

vt 63.6191 1.20409e-19
vt 82.1671 1.20409e-19
vt 82.1671 7.87402
vt 63.6191 7.87402
f 56/191/9 71/192/9 60/193/9 57/194/9 

vt -66.4317 -3.91589e-19
vt -59.3451 -3.91589e-19
vt -59.3451 7.87402
vt -66.4317 7.87402
f 71/195/3 65/196/3 67/197/3 60/198/3 

vt 56.524 59.3451
vt 65.5791 54.1171
f 67/199/8 70/200/8 60/157/8

f 66/180/8 70/200/8 67/199/8

f 66/180/8 68/179/8 70/200/8

f 59/158/8 60/157/8 70/200/8

vt 54.1171 -8.88633e-16
vt 82.1156 -8.88633e-16
vt 82.1156 7.87402
vt 54.1171 7.87402
f 69/201/6 58/202/6 59/203/6 70/204/6 

vt -2.73493 8.88079e-16
vt 7.72102 -9.96809e-20
vt 7.72102 7.87402
vt -2.73493 7.87402
f 51/205/4 52/206/4 49/207/4 50/208/4 

f 27/60/8 29/62/8 43/131/8

